<?xml version="1.0" encoding="UTF-8" standalone="no"?>
<!DOCTYPE svg PUBLIC "-//W3C//DTD SVG 1.1//EN"
 "http://www.w3.org/Graphics/SVG/1.1/DTD/svg11.dtd">
<!-- Generated by graphviz version 2.46.1 (20210213.1702)
 -->
<!-- Pages: 1 -->
<svg width="143pt" height="415pt"
 viewBox="0.00 0.00 142.99 414.99" xmlns="http://www.w3.org/2000/svg" xmlns:xlink="http://www.w3.org/1999/xlink">
<g id="graph0" class="graph" transform="scale(1 1) rotate(0) translate(4 410.99)">
<polygon fill="white" stroke="transparent" points="-4,4 -4,-410.99 138.99,-410.99 138.99,4 -4,4"/>
<!-- fake -->
<g id="node1" class="node">
<title>fake</title>
</g>
<!-- {&#39;q0&#39;} -->
<g id="node3" class="node">
<title>{&#39;q0&#39;}</title>
<ellipse fill="none" stroke="black" cx="102.5" cy="-315.99" rx="32.49" ry="18"/>
<text text-anchor="middle" x="102.5" y="-312.29" font-family="Times New Roman,serif" font-size="14.00">{&#39;q0&#39;}</text>
</g>
<!-- fake&#45;&gt;{&#39;q0&#39;} -->
<g id="edge1" class="edge">
<title>fake&#45;&gt;{&#39;q0&#39;}</title>
<path fill="none" stroke="black" stroke-width="2" d="M102.5,-370.81C102.5,-362.78 102.5,-353.04 102.5,-344.06"/>
<polygon fill="black" stroke="black" stroke-width="2" points="106,-344.02 102.5,-334.02 99,-344.02 106,-344.02"/>
</g>
<!-- {&#39;q3&#39;} -->
<g id="node2" class="node">
<title>{&#39;q3&#39;}</title>
<ellipse fill="none" stroke="black" cx="79.5" cy="-36.5" rx="32.49" ry="32.49"/>
<ellipse fill="none" stroke="black" cx="79.5" cy="-36.5" rx="36.49" ry="36.49"/>
<text text-anchor="middle" x="79.5" y="-32.8" font-family="Times New Roman,serif" font-size="14.00">{&#39;q3&#39;}</text>
</g>
<!-- {&#39;q1&#39;} -->
<g id="node5" class="node">
<title>{&#39;q1&#39;}</title>
<ellipse fill="none" stroke="black" cx="32.5" cy="-228.99" rx="32.49" ry="18"/>
<text text-anchor="middle" x="32.5" y="-225.29" font-family="Times New Roman,serif" font-size="14.00">{&#39;q1&#39;}</text>
</g>
<!-- {&#39;q0&#39;}&#45;&gt;{&#39;q1&#39;} -->
<g id="edge2" class="edge">
<title>{&#39;q0&#39;}&#45;&gt;{&#39;q1&#39;}</title>
<path fill="none" stroke="black" d="M89.66,-299.4C79.17,-286.66 64.16,-268.44 52.16,-253.87"/>
<polygon fill="black" stroke="black" points="54.55,-251.27 45.49,-245.77 49.15,-255.72 54.55,-251.27"/>
<text text-anchor="middle" x="76" y="-268.79" font-family="Times New Roman,serif" font-size="14.00">a</text>
</g>
<!-- {&#39;q2&#39;} -->
<g id="node4" class="node">
<title>{&#39;q2&#39;}</title>
<ellipse fill="none" stroke="black" cx="79.5" cy="-141.99" rx="32.49" ry="18"/>
<text text-anchor="middle" x="79.5" y="-138.29" font-family="Times New Roman,serif" font-size="14.00">{&#39;q2&#39;}</text>
</g>
<!-- {&#39;q2&#39;}&#45;&gt;{&#39;q3&#39;} -->
<g id="edge6" class="edge">
<title>{&#39;q2&#39;}&#45;&gt;{&#39;q3&#39;}</title>
<path fill="none" stroke="black" d="M79.5,-123.9C79.5,-112.82 79.5,-97.8 79.5,-83.39"/>
<polygon fill="black" stroke="black" points="83,-83.08 79.5,-73.08 76,-83.08 83,-83.08"/>
<text text-anchor="middle" x="83.5" y="-94.79" font-family="Times New Roman,serif" font-size="14.00">b</text>
</g>
<!-- {&#39;q2&#39;}&#45;&gt;{&#39;q0&#39;} -->
<g id="edge5" class="edge">
<title>{&#39;q2&#39;}&#45;&gt;{&#39;q0&#39;}</title>
<path fill="none" stroke="black" d="M85.74,-159.76C90.49,-173.36 96.66,-193.13 99.5,-210.99 103.6,-236.82 104.02,-266.69 103.61,-287.78"/>
<polygon fill="black" stroke="black" points="100.11,-287.85 103.34,-297.94 107.11,-288.03 100.11,-287.85"/>
<text text-anchor="middle" x="107" y="-225.29" font-family="Times New Roman,serif" font-size="14.00">a</text>
</g>
<!-- {&#39;q1&#39;}&#45;&gt;{&#39;q2&#39;} -->
<g id="edge3" class="edge">
<title>{&#39;q1&#39;}&#45;&gt;{&#39;q2&#39;}</title>
<path fill="none" stroke="black" d="M41.56,-211.61C48.32,-199.38 57.69,-182.44 65.42,-168.45"/>
<polygon fill="black" stroke="black" points="68.69,-169.78 70.46,-159.33 62.56,-166.39 68.69,-169.78"/>
<text text-anchor="middle" x="63" y="-181.79" font-family="Times New Roman,serif" font-size="14.00">a</text>
</g>
<!-- {&#39;q1&#39;}&#45;&gt;{&#39;q1&#39;} -->
<g id="edge4" class="edge">
<title>{&#39;q1&#39;}&#45;&gt;{&#39;q1&#39;}</title>
<path fill="none" stroke="black" d="M61.81,-236.83C73.35,-237.23 82.99,-234.61 82.99,-228.99 82.99,-225.13 78.44,-222.69 71.84,-221.67"/>
<polygon fill="black" stroke="black" points="71.97,-218.17 61.81,-221.16 71.62,-225.16 71.97,-218.17"/>
<text text-anchor="middle" x="86.99" y="-225.29" font-family="Times New Roman,serif" font-size="14.00">b</text>
</g>
</g>
</svg>
